<?xml version="1.0" encoding="utf-8"?>
<!-- Generator: Adobe Illustrator 23.0.2, SVG Export Plug-In . SVG Version: 6.00 Build 0)  -->
<svg version="1.1" id="Layer_1" xmlns="http://www.w3.org/2000/svg" xmlns:xlink="http://www.w3.org/1999/xlink" x="0px" y="0px"
	 viewBox="0 0 341.6 86" style="enable-background:new 0 0 341.6 86;" xml:space="preserve">
<style type="text/css">
	.st0{fill:#FFFFFF;}
</style>
<g>
	<g>
		<g>
			<rect y="37.2" class="st0" width="25.2" height="48.8"/>
		</g>
		<g>
			<rect class="st0" width="25.2" height="25.2"/>
			<path class="st0" d="M65.4,0H37.2v25.2h28.3c3.3,0,6,2.7,6,6c0,3.3-2.7,6-6,6H37.2h-12h-5v25.2h45.2c17.2,0,31.2-14,31.2-31.2
				S82.6,0,65.4,0z"/>
		</g>
	</g>
	<g>
		<path class="st0" d="M148.7,43.7h-9.4v16.8H127V4.4h22.9c13.4,0,21.5,7.9,21.5,19.4V24C171.4,37,161.3,43.7,148.7,43.7z
			 M158.9,24.1c0-5.5-3.8-8.5-10-8.5h-9.5v17.2h9.8c6.2,0,9.8-3.7,9.8-8.5V24.1z"/>
		<path class="st0" d="M211.9,43.7h-9.4v16.8h-12.3V4.4h22.9c13.4,0,21.5,7.9,21.5,19.4V24C234.6,37,224.5,43.7,211.9,43.7z
			 M222.1,24.1c0-5.5-3.8-8.5-10-8.5h-9.5v17.2h9.8c6.2,0,9.8-3.7,9.8-8.5V24.1z"/>
		<path class="st0" d="M253.9,60.5V4.4h12.3v56.1H253.9z"/>
		<path class="st0" d="M311.8,60.5h-21.9V4.4h21.9c17.6,0,29.8,12.1,29.8,27.9v0.2C341.6,48.3,329.4,60.5,311.8,60.5z M328.7,32.5
			c0-9.9-6.8-16.9-16.9-16.9h-9.5v33.8h9.5c10.1,0,16.9-6.8,16.9-16.8V32.5z"/>
	</g>
	<g>
		<path class="st0" d="M127,67h2.5v7.3l6.9-7.3h3.1l-6,6.2l6.3,8.2h-3.1l-4.9-6.5l-2.2,2.3v4.2H127V67z"/>
		<path class="st0" d="M143.1,74.2L143.1,74.2c0-4.1,3.1-7.5,7.6-7.5c4.4,0,7.5,3.4,7.5,7.4v0c0,4.1-3.1,7.5-7.6,7.5
			C146.2,81.6,143.1,78.3,143.1,74.2z M155.6,74.2L155.6,74.2c0-2.8-2-5.2-4.9-5.2c-2.9,0-4.9,2.3-4.9,5.1v0c0,2.8,2,5.1,4.9,5.1
			C153.6,79.3,155.6,77,155.6,74.2z"/>
		<path class="st0" d="M166.9,69.3h-4.6V67h11.7v2.4h-4.6v12.1h-2.6V69.3z"/>
		<path class="st0" d="M182.9,66.9h2.4l6.4,14.5h-2.7l-1.5-3.5h-6.8l-1.5,3.5h-2.6L182.9,66.9z M186.5,75.7l-2.5-5.8l-2.5,5.8H186.5
			z"/>
		<path class="st0" d="M205.1,79.3l1.5-1.8c1.4,1.2,2.8,1.9,4.6,1.9c1.6,0,2.6-0.7,2.6-1.8v0c0-1-0.6-1.6-3.3-2.2
			c-3.1-0.7-4.8-1.6-4.8-4.3v0c0-2.5,2.1-4.2,4.9-4.2c2.1,0,3.8,0.6,5.2,1.8l-1.4,1.9c-1.3-1-2.6-1.5-3.9-1.5
			c-1.5,0-2.4,0.8-2.4,1.7v0c0,1.1,0.7,1.6,3.4,2.3c3.1,0.7,4.6,1.8,4.6,4.2v0c0,2.7-2.1,4.3-5.2,4.3
			C208.9,81.6,206.8,80.8,205.1,79.3z"/>
		<path class="st0" d="M221.9,75.3V67h2.5v8.2c0,2.7,1.4,4.1,3.7,4.1c2.2,0,3.6-1.4,3.6-4V67h2.5v8.2c0,4.3-2.4,6.5-6.2,6.5
			C224.3,81.6,221.9,79.5,221.9,75.3z"/>
		<path class="st0" d="M240.6,67h6.4c1.8,0,3.2,0.5,4.2,1.4c0.8,0.8,1.2,1.9,1.2,3.1v0c0,2.4-1.4,3.8-3.4,4.4l3.9,5.5h-3l-3.5-5
			h-3.2v5h-2.5V67z M246.9,74.1c1.8,0,3-0.9,3-2.4v0c0-1.5-1.1-2.4-3-2.4h-3.7v4.8H246.9z"/>
		<path class="st0" d="M263.5,66.9h2.4l6.4,14.5h-2.7l-1.5-3.5h-6.8l-1.5,3.5h-2.6L263.5,66.9z M267.2,75.7l-2.5-5.8l-2.5,5.8H267.2
			z"/>
		<path class="st0" d="M277.6,67h6.5c1.7,0,2.9,0.5,3.8,1.3c0.6,0.6,1,1.4,1,2.4v0c0,1.7-1,2.7-2.1,3.2c1.7,0.6,2.9,1.5,2.9,3.5v0
			c0,2.6-2.1,4-5.3,4h-6.7V67z M283.6,73c1.6,0,2.7-0.6,2.7-2v0c0-1.1-0.9-1.8-2.5-1.8h-3.7V73H283.6z M284.3,79.2
			c1.7,0,2.8-0.7,2.8-2v0c0-1.2-1-1.9-3-1.9h-4v4H284.3z"/>
		<path class="st0" d="M300.5,66.9h2.4l6.4,14.5h-2.7l-1.5-3.5h-6.8l-1.5,3.5h-2.6L300.5,66.9z M304.1,75.7l-2.5-5.8l-2.5,5.8H304.1
			z"/>
		<path class="st0" d="M316.5,75.7l-5.7-8.7h3l4,6.4l4.1-6.4h2.9l-5.7,8.7v5.8h-2.6V75.7z"/>
		<path class="st0" d="M332.8,66.9h2.4l6.4,14.5h-2.7l-1.5-3.5h-6.8l-1.5,3.5h-2.6L332.8,66.9z M336.4,75.7l-2.5-5.8l-2.5,5.8H336.4
			z"/>
	</g>
</g>
</svg>
